<svg width="152" height="60" viewBox="0 0 152 60" fill="none" xmlns="http://www.w3.org/2000/svg">
<g clip-path="url(#clip0)">
<path fill-rule="evenodd" clip-rule="evenodd" d="M7.19369 42.4111C-2.3979 32.709 -2.3979 16.9787 7.19369 7.2766C16.7853 -2.42553 32.3363 -2.42553 41.9279 7.2766C51.5195 16.9787 51.5195 32.709 41.9279 42.4111L24.5608 59.9784L7.19369 42.4111ZM24.6924 18.1834L24.892 15.6939C24.2571 15.342 23.7173 14.9306 23.2587 14.4817L23.1468 13.0868C23.1468 13.0868 23.0977 12.485 23.0977 12.4265C23.0977 11.5251 23.8228 10.7918 24.7138 10.7918C25.6047 10.7918 26.3295 11.5251 26.3295 12.4265C26.3295 12.4852 26.2807 13.0868 26.2807 13.0868L26.0296 16.2183L25.8378 18.6101L25.6653 20.762C25.5704 21.9455 23.8571 21.9455 23.7623 20.762L23.6529 19.3976C22.9342 19.0724 22.2932 18.6878 21.7229 18.2578L22.42 27.1762C23.2531 26.6986 24.189 26.2804 25.2305 25.9262C25.9387 25.6854 26.5809 25.4566 27.169 25.2369L27.6441 19.1634C33.3723 20.9925 33.3723 22.0872 33.3723 22.9804C33.3723 24.0166 33.3723 25.088 26.2126 27.523C22.8544 28.665 20.5794 30.4432 19.4503 32.808C18.5877 34.6151 18.4748 36.7211 19.1409 38.586C19.424 39.3785 20.3323 41.3227 22.6458 42.2559C22.9766 42.3893 23.3189 42.4949 23.6724 42.5728L24.5944 54.0721C24.6063 54.2205 24.8211 54.2205 24.833 54.0721L25.7432 42.72C27.2883 42.6236 28.9998 42.1017 30.8621 41.1563C31.4303 40.8678 31.66 40.1679 31.3746 39.5929C31.0898 39.0185 30.3976 38.7854 29.8292 39.0744C28.4001 39.7999 27.0875 40.2304 25.9325 40.3593L26.7801 29.7884C26.8352 29.769 26.8907 29.7498 26.9465 29.7308C33.7171 27.4282 35.675 25.914 35.675 22.9804C35.675 20.1767 33.739 18.6059 27.8303 16.7826L28.1302 12.9488C28.1313 12.9352 28.1284 12.9226 28.1253 12.9101C28.1471 12.7516 28.1622 12.591 28.1622 12.4264C28.1622 10.4999 26.6183 8.93817 24.7137 8.93817C23.1112 8.93817 21.764 10.0439 21.377 11.5422C20.5413 9.32566 20.7081 7.23056 20.7228 7.06917C20.7826 6.43023 20.3196 5.86244 19.6876 5.80039C19.0565 5.73935 18.492 6.2068 18.4306 6.84701C18.1425 9.84638 19.1559 15.7671 24.6924 18.1834ZM22.8294 32.059C22.2651 32.5971 21.8267 33.1868 21.5239 33.821C20.6791 35.5907 21.0906 37.1893 21.3068 37.7944C21.4444 38.1796 22.0055 39.4772 23.4727 40.0817L22.8294 32.059Z" fill="#0585F5"/>
<path d="M59 13.2226V10.2898H79.3466V13.2226H70.7796V37.6613H67.567V13.2226H59Z" fill="#414042"/>
<path d="M95.305 32.5385C95.305 34.4159 95.305 35.4713 97.6058 35.2759V37.583C94.6309 38.091 92.7272 37.3481 92.7272 34.3764V33.7118C91.5772 36.5663 88.7211 37.935 85.6674 37.935C79.837 37.935 76.9809 33.2821 76.9809 28.0422C77.1003 21.8639 81.4236 18.423 87.6504 18.423C90.3076 18.4625 92.9255 19.1271 95.305 20.1826V32.5385ZM92.2907 22.0205C90.7041 21.2776 88.9193 20.9255 87.4522 20.9255C83.129 20.9255 80.2335 23.4675 80.1146 28.0422C80.1146 31.9917 82.2566 35.1193 86.2621 35.1193C90.1488 35.1193 92.2907 32.1871 92.2907 28.0422V22.0205Z" fill="#414042"/>
<path d="M101.792 10.6813C102.783 10.6813 103.735 11.3064 103.735 12.5968C103.735 13.8872 102.783 14.513 101.831 14.5518C100.84 14.5913 99.8088 13.9267 99.8088 12.5968C99.8088 11.3064 100.8 10.6813 101.792 10.6813ZM103.299 37.6613H100.205V18.9705H103.299V37.6613Z" fill="#414042"/>
<path d="M110.512 9V30.8572C110.512 34.533 111.306 35.8234 115.312 35.3147L115.431 37.7396C109.601 38.6779 107.379 36.6834 107.379 30.8572V9H110.512Z" fill="#414042"/>
<path d="M115.327 28.1988C115.327 15.0993 135.475 15.0993 135.475 28.1988C135.475 41.2193 115.327 41.2976 115.327 28.1988ZM132.381 28.1988C132.381 18.6185 118.46 18.6185 118.46 28.1988C118.46 37.8172 132.381 37.8172 132.381 28.1988Z" fill="#414042"/>
<path d="M147.518 18.1888C149.184 18.1888 150.691 18.6579 152 19.5963L151.246 22.1771C150.017 21.3947 148.668 20.9255 147.201 20.9255C144.464 20.9255 141.925 22.9589 141.925 25.9305V37.6613H138.871V23.2326C138.871 21.5125 138.832 20.4564 136.571 20.6518L136.531 18.6185C139.506 18.1105 141.608 18.423 141.727 21.3164C142.798 19.01 144.98 18.1888 147.518 18.1888Z" fill="#414042"/>
<path d="M67.1384 44.0583H70.3037C71.1341 44.0583 71.8706 44.2272 72.5145 44.565C73.1585 44.9028 73.6593 45.3707 74.0171 45.9673C74.3755 46.5647 74.5547 47.2422 74.5547 48.0007C74.5547 48.7598 74.3755 49.4373 74.0171 50.0346C73.6593 50.6313 73.1585 51.0992 72.5145 51.437C71.8706 51.7748 71.1341 51.9437 70.3037 51.9437H67.1384V44.0583ZM70.2577 51.4253C70.9969 51.4253 71.648 51.281 72.2119 50.9918C72.7758 50.7031 73.2097 50.2993 73.5143 49.781C73.8188 49.2626 73.9718 48.6698 73.9718 48.0007C73.9718 47.3328 73.8188 46.7394 73.5143 46.221C73.2097 45.7027 72.7758 45.2995 72.2119 45.0102C71.648 44.7209 70.9969 44.576 70.2577 44.576H67.7213V51.4253H70.2577Z" fill="#414042"/>
<path d="M77.7607 44.0583H78.3436V51.9437H77.7607V44.0583Z" fill="#414042"/>
<path d="M87.722 51.9437L85.8137 49.3079C85.5315 49.3454 85.2728 49.3642 85.0365 49.3642H82.7515V51.9437H82.1686V44.0583H85.0365C86.0422 44.0583 86.8306 44.2925 87.4023 44.7624C87.9734 45.2315 88.2589 45.8832 88.2589 46.7167C88.2589 47.3399 88.0975 47.8641 87.7732 48.288C87.4496 48.7125 86.9868 49.0109 86.3848 49.1836L88.385 51.9437H87.722ZM85.0365 48.8568C85.8899 48.8568 86.5411 48.6711 86.9907 48.2996C87.4404 47.9275 87.6649 47.4001 87.6649 46.7167C87.6649 46.0334 87.4404 45.5059 86.9907 45.1338C86.5411 44.7624 85.8899 44.576 85.0365 44.576H82.7515V48.8568H85.0365Z" fill="#414042"/>
<path d="M97.0623 51.4253V51.9437H91.543V44.0583H96.891V44.576H92.1259V47.6855H96.3881V48.1922H92.1259V51.4253H97.0623Z" fill="#414042"/>
<path d="M101.347 51.4823C100.719 51.1367 100.223 50.6598 99.8613 50.0515C99.4996 49.4431 99.3184 48.7598 99.3184 48.0007C99.3184 47.2422 99.4996 46.5588 99.8613 45.9505C100.223 45.3422 100.719 44.8653 101.347 44.5197C101.976 44.1748 102.682 44.002 103.467 44.002C104.045 44.002 104.579 44.0939 105.067 44.2777C105.554 44.4621 105.969 44.7339 106.312 45.0943L105.946 45.4665C105.306 44.8426 104.488 44.5313 103.489 44.5313C102.819 44.5313 102.21 44.6815 101.661 44.9817C101.112 45.282 100.682 45.6975 100.37 46.2268C100.058 46.7562 99.9013 47.3477 99.9013 48.0007C99.9013 48.6543 100.058 49.2458 100.37 49.7751C100.682 50.3045 101.112 50.72 101.661 51.0202C102.21 51.3205 102.819 51.4706 103.489 51.4706C104.48 51.4706 105.299 51.1555 105.946 50.5245L106.312 50.896C105.969 51.2564 105.553 51.5308 105.061 51.7185C104.569 51.9062 104.038 52 103.467 52C102.682 52 101.976 51.8272 101.347 51.4823Z" fill="#414042"/>
<path d="M111.252 44.576H108.373V44.0583H114.714V44.576H111.835V51.9437H111.252V44.576Z" fill="#414042"/>
<path d="M118.226 51.4765C117.593 51.127 117.096 50.6481 116.734 50.0398C116.372 49.4315 116.191 48.752 116.191 48.0007C116.191 47.25 116.372 46.5705 116.734 45.9622C117.096 45.3539 117.593 44.875 118.226 44.5255C118.858 44.1761 119.567 44.002 120.351 44.002C121.135 44.002 121.844 44.1748 122.477 44.5197C123.109 44.8653 123.606 45.3422 123.968 45.9505C124.33 46.5588 124.51 47.2422 124.51 48.0007C124.51 48.7598 124.33 49.4431 123.968 50.0515C123.606 50.6598 123.109 51.1367 122.477 51.4823C121.844 51.8272 121.135 52 120.351 52C119.567 52 118.858 51.8253 118.226 51.4765ZM122.168 51.0202C122.709 50.72 123.136 50.3045 123.448 49.7751C123.76 49.2458 123.916 48.6543 123.916 48.0007C123.916 47.3477 123.76 46.7562 123.448 46.2268C123.136 45.6975 122.709 45.282 122.168 44.9817C121.627 44.6815 121.021 44.5313 120.351 44.5313C119.681 44.5313 119.073 44.6815 118.528 44.9817C117.984 45.282 117.555 45.6975 117.243 46.2268C116.93 46.7562 116.774 47.3477 116.774 48.0007C116.774 48.6543 116.93 49.2458 117.243 49.7751C117.555 50.3045 117.984 50.72 118.528 51.0202C119.073 51.3205 119.681 51.4706 120.351 51.4706C121.021 51.4706 121.627 51.3205 122.168 51.0202Z" fill="#414042"/>
<path d="M133.258 51.9437L131.35 49.3079C131.068 49.3454 130.809 49.3642 130.573 49.3642H128.288V51.9437H127.705V44.0583H130.573C131.579 44.0583 132.367 44.2925 132.939 44.7624C133.51 45.2315 133.795 45.8832 133.795 46.7167C133.795 47.3399 133.634 47.8641 133.31 48.288C132.986 48.7125 132.523 49.0109 131.921 49.1836L133.921 51.9437H133.258ZM130.573 48.8568C131.426 48.8568 132.077 48.6711 132.527 48.2996C132.977 47.9275 133.201 47.4001 133.201 46.7167C133.201 46.0334 132.977 45.5059 132.527 45.1338C132.077 44.7624 131.426 44.576 130.573 44.576H128.288V48.8568H130.573Z" fill="#414042"/>
<path d="M139.412 49.2289V51.9437H138.829V49.2289L135.606 44.0583H136.246L139.137 48.6996L142.028 44.0583H142.634L139.412 49.2289Z" fill="#414042"/>
</g>
<defs>
<clipPath id="clip0">
<path d="M0 0H152V59.9784H0V0Z" fill="white"/>
</clipPath>
</defs>
</svg>
