<svg width="28" height="28" viewBox="0 0 28 28" fill="none" xmlns="http://www.w3.org/2000/svg">
<circle cx="14" cy="14" r="14" fill="#0585F5"/>
<path d="M20.3 9.67295C20.3 8.62476 19.3752 7.69989 18.327 7.69989H10.3731C9.32489 7.69989 8.40002 8.62476 8.40002 9.67295V17.6268C8.40002 18.675 9.32489 19.5999 10.3731 19.5999H14.3809V15.0989H12.9011V13.1258H14.3809V12.3242C14.3809 10.9678 15.3674 9.79626 16.6005 9.79626H18.2037V11.7693H16.6005C16.4156 11.7693 16.2306 11.9543 16.2306 12.3242V13.1258H18.2037V15.0989H16.2306V19.5999H18.327C19.3752 19.5999 20.3 18.675 20.3 17.6268V9.67295Z" fill="white"/>
</svg>
