<svg width="28" height="28" viewBox="0 0 28 28" fill="none" xmlns="http://www.w3.org/2000/svg">
<circle cx="14" cy="14" r="14" fill="#0585F5"/>
<path d="M18.6066 8.40002H10.0935C9.13233 8.40002 8.40002 9.13233 8.40002 10.0935V18.6066C8.40002 19.5677 9.13233 20.3 10.0935 20.3H18.6066C19.5677 20.3 20.3 19.5677 20.3 18.6066V10.0935C20.3 9.13233 19.5677 8.40002 18.6066 8.40002ZM14.35 17.92C16.3181 17.92 17.92 16.3639 17.92 14.4873C17.92 14.1669 17.8743 13.8008 17.7827 13.5262H18.7896V18.3777C18.7896 18.6066 18.6066 18.8354 18.3319 18.8354H10.3681C10.1393 18.8354 9.91041 18.6523 9.91041 18.3777V13.4804H10.9631C10.8716 13.8008 10.8258 14.1212 10.8258 14.4416C10.78 16.3639 12.3819 17.92 14.35 17.92ZM14.35 16.5469C13.0685 16.5469 12.0616 15.54 12.0616 14.3043C12.0616 13.0685 13.0685 12.0616 14.35 12.0616C15.6316 12.0616 16.6385 13.0685 16.6385 14.3043C16.6385 15.5858 15.6316 16.5469 14.35 16.5469ZM18.7439 11.6496C18.7439 11.9243 18.515 12.1531 18.2404 12.1531H16.9589C16.6843 12.1531 16.4554 11.9243 16.4554 11.6496V10.4139C16.4554 10.1393 16.6843 9.91041 16.9589 9.91041H18.2404C18.515 9.91041 18.7439 10.1393 18.7439 10.4139V11.6496Z" fill="white"/>
</svg>
