<svg width="28" height="28" viewBox="0 0 28 28" fill="none" xmlns="http://www.w3.org/2000/svg">
<circle cx="14" cy="14" r="14" fill="#0585F5"/>
<path d="M6.54542 14.2619L9.76409 15.4621L11.0188 19.499C11.0734 19.7718 11.4007 19.8263 11.6189 19.6627L13.4192 18.1897C13.5828 18.0261 13.8556 18.0261 14.0738 18.1897L17.2925 20.5355C17.5107 20.6992 17.838 20.5901 17.8926 20.3173L20.2929 8.86108C20.3475 8.58832 20.0747 8.31555 19.8019 8.42466L6.54542 13.5527C6.2181 13.6618 6.2181 14.1528 6.54542 14.2619ZM10.8552 14.862L17.1833 10.9887C17.2925 10.9341 17.4016 11.0978 17.2925 11.1523L12.1099 16.0076C11.9462 16.1713 11.7826 16.3895 11.7826 16.6622L11.6189 17.9715C11.6189 18.1352 11.3461 18.1897 11.2916 17.9715L10.6369 15.5712C10.4733 15.2984 10.5824 14.9711 10.8552 14.862Z" fill="white"/>
</svg>
