<svg width="16" height="18" viewBox="0 0 16 18" fill="none" xmlns="http://www.w3.org/2000/svg">
<path fill-rule="evenodd" clip-rule="evenodd" d="M8 1.3125C6.35897 1.3125 4.78516 1.9644 3.62478 3.12478C2.4644 4.28516 1.8125 5.85897 1.8125 7.5C1.8125 9.89891 3.36823 12.1993 5.03335 13.9569C5.85441 14.8236 6.67738 15.5324 7.29571 16.0248C7.58243 16.2531 7.82417 16.4341 8 16.5619C8.17583 16.4341 8.41757 16.2531 8.70429 16.0248C9.32262 15.5324 10.1456 14.8236 10.9667 13.9569C12.6318 12.1993 14.1875 9.89891 14.1875 7.5C14.1875 5.85897 13.5356 4.28516 12.3752 3.12478C11.2148 1.9644 9.64103 1.3125 8 1.3125ZM8 17.25C7.68798 17.718 7.68783 17.7179 7.68766 17.7178L7.68576 17.7165L7.6811 17.7134L7.66459 17.7022C7.65044 17.6926 7.63008 17.6787 7.60392 17.6606C7.55161 17.6244 7.47607 17.5713 7.38062 17.5024C7.18978 17.3646 6.91901 17.1629 6.59492 16.9049C5.94762 16.3894 5.08309 15.6452 4.21665 14.7306C2.50677 12.9257 0.6875 10.3511 0.6875 7.5C0.6875 5.5606 1.45792 3.70064 2.82928 2.32928C4.20064 0.957922 6.0606 0.1875 8 0.1875C9.9394 0.1875 11.7994 0.957922 13.1707 2.32928C14.5421 3.70064 15.3125 5.5606 15.3125 7.5C15.3125 10.3511 13.4932 12.9257 11.7833 14.7306C10.9169 15.6452 10.0524 16.3894 9.40508 16.9049C9.08099 17.1629 8.81022 17.3646 8.61938 17.5024C8.52393 17.5713 8.44839 17.6244 8.39608 17.6606C8.36992 17.6787 8.34956 17.6926 8.33541 17.7022L8.3189 17.7134L8.31424 17.7165L8.31282 17.7175C8.31265 17.7176 8.31202 17.718 8 17.25ZM8 17.25L8.31202 17.718C8.12308 17.844 7.8766 17.8438 7.68766 17.7178L8 17.25ZM8 5.8125C7.06802 5.8125 6.3125 6.56802 6.3125 7.5C6.3125 8.43198 7.06802 9.1875 8 9.1875C8.93198 9.1875 9.6875 8.43198 9.6875 7.5C9.6875 6.56802 8.93198 5.8125 8 5.8125ZM5.1875 7.5C5.1875 5.9467 6.4467 4.6875 8 4.6875C9.5533 4.6875 10.8125 5.9467 10.8125 7.5C10.8125 9.0533 9.5533 10.3125 8 10.3125C6.4467 10.3125 5.1875 9.0533 5.1875 7.5Z" fill="#BBBBBB"/>
</svg>
