<svg width="18" height="18" viewBox="0 0 18 18" fill="none" xmlns="http://www.w3.org/2000/svg">
<path d="M18 2.94434C18 3.33105 17.9268 3.70605 17.7803 4.06934C17.6338 4.43262 17.4199 4.75488 17.1387 5.03613L5.56348 16.6113L0 18L1.38867 12.4365L12.9639 0.861328C13.2451 0.580078 13.5674 0.366211 13.9307 0.219727C14.2939 0.0732422 14.6689 0 15.0557 0C15.46 0 15.8408 0.0791016 16.1982 0.237305C16.5557 0.389648 16.8662 0.600586 17.1299 0.870117C17.3994 1.13379 17.6104 1.44434 17.7627 1.80176C17.9209 2.15918 18 2.54004 18 2.94434ZM2.86523 12.5508C3.48633 12.7559 4.01953 13.084 4.46484 13.5352C4.91602 13.9805 5.24414 14.5137 5.44922 15.1348L14.9502 5.625L12.375 3.0498L2.86523 12.5508ZM1.54688 16.4531L4.43848 15.7324C4.37988 15.4629 4.2832 15.208 4.14844 14.9678C4.01953 14.7275 3.86133 14.5137 3.67383 14.3262C3.48633 14.1387 3.27246 13.9805 3.03223 13.8516C2.79199 13.7168 2.53711 13.6201 2.26758 13.5615L1.54688 16.4531ZM15.75 4.8252C15.8965 4.67871 16.0371 4.54102 16.1719 4.41211C16.3066 4.2832 16.4268 4.14844 16.5322 4.00781C16.6377 3.86133 16.7197 3.70605 16.7783 3.54199C16.8428 3.37207 16.875 3.17578 16.875 2.95312C16.875 2.70117 16.8252 2.4668 16.7256 2.25C16.6318 2.02734 16.5 1.83398 16.3301 1.66992C16.166 1.5 15.9727 1.36816 15.75 1.27441C15.5332 1.1748 15.2988 1.125 15.0469 1.125C14.8242 1.125 14.6279 1.15723 14.458 1.22168C14.2939 1.28027 14.1387 1.3623 13.9922 1.46777C13.8516 1.57324 13.7168 1.69336 13.5879 1.82812C13.459 1.96289 13.3213 2.10352 13.1748 2.25L15.75 4.8252Z" fill="white"/>
</svg>
