<svg width="50" height="50" viewBox="0 0 50 50" fill="none" xmlns="http://www.w3.org/2000/svg">
<path d="M41.5 24C40 20.5 32 19.5 25 19.5C19.8 19.2402 14.8334 20.3917 13.0001 21C11.3334 21.3333 7.80003 24 7.00003 32C6.00003 42 14.5 47.5 16.5 48C18.5 48.5 33.5 52.5 40 44C46.4553 35.5585 43.0477 27.6101 41.5313 24.0729L41.5 24Z" fill="white"/>
<path d="M43.6587 27.6958L42.2773 24.012C42.1702 22.6145 40.8361 21.4757 38.7542 20.6082L41.0369 15.6604L39.5733 14.9847L37.2307 20.0605C36.1805 19.734 35.0122 19.458 33.7588 19.2363L37.7958 4.24173L36.238 3.82275L32.1549 18.987C31.0717 18.8409 29.9459 18.7315 28.7992 18.6582L29.3855 8.109L27.775 8.01922L27.1887 18.5807C26.5791 18.5598 25.9668 18.5484 25.3548 18.5484C24.6831 18.5484 24.0113 18.5622 23.3419 18.587L22.9339 11.2458L21.3234 11.3356L21.7305 18.6708C20.6453 18.7445 19.5797 18.8492 18.5532 18.9878L14.4709 3.82275L12.9127 4.24173L16.9501 19.2363C15.6975 19.458 14.5284 19.734 13.4782 20.0605L11.1356 14.9847L9.67195 15.6604L11.9547 20.6082C9.87239 21.4765 8.53867 22.6145 8.43156 24.012L7.0498 27.6958C6.35322 29.5548 6 31.5055 6 33.4917C6 42.5943 13.4057 50 22.5082 50H28.2022C37.3039 50 44.7097 42.5943 44.7097 33.4917C44.7097 31.5055 44.3565 29.5548 43.6587 27.6958ZM12.6339 22.0766L14.1385 25.3378L15.6026 24.6621L14.1606 21.5387C15.0872 21.2603 16.1653 21.0095 17.3703 20.7992L18.1236 23.5966L19.6813 23.1776L18.9749 20.5523C19.8644 20.4361 20.817 20.3444 21.8203 20.2774L22.1298 25.8517L23.7404 25.7619L23.4316 20.1975C24.0558 20.1751 24.6945 20.1613 25.3548 20.1613C25.9506 20.1613 26.5322 20.1711 27.0993 20.1888L26.9685 22.5361L28.5791 22.6259L28.7106 20.2644C29.7813 20.3314 30.7913 20.4298 31.734 20.5523L31.0276 23.1776L32.5853 23.5966L33.3386 20.7992C34.5436 21.0095 35.6217 21.2603 36.5483 21.5387L35.1063 24.6621L36.5703 25.3378L38.075 22.0766C39.7572 22.7629 40.6774 23.5288 40.6774 24.1935C40.6774 25.8773 34.8484 28.2258 25.3548 28.2258C15.8613 28.2258 10.0323 25.8773 10.0323 24.1935C10.0323 23.5288 10.9525 22.7629 12.6339 22.0766ZM28.2014 48.3871H22.5082C14.2953 48.3871 7.6129 41.7055 7.6129 33.4917C7.6129 31.6993 7.93226 29.9403 8.56111 28.2628L9.34512 26.1719C10.0693 26.8937 11.1829 27.5123 12.5749 28.0234C11.9736 29.0047 11.6452 30.1321 11.6452 31.313V32.258H13.2581V31.313C13.2581 30.2974 13.5829 29.3339 14.1752 28.5314C15.4475 28.883 16.8702 29.1661 18.383 29.3764C17.6743 30.4152 17.2903 31.6402 17.2903 32.9259V33.871H18.9032V32.9259C18.9032 31.6701 19.3919 30.4896 20.2799 29.6024L20.2751 29.5977C21.6652 29.7324 23.104 29.8111 24.5484 29.8332V35.4839H26.1613V29.8324C27.6057 29.8111 29.0445 29.7316 30.4345 29.5969L30.4298 29.6016C31.3178 30.4904 31.8065 31.6701 31.8065 32.9259V33.871H33.4194V32.9259C33.4194 31.6402 33.0354 30.4152 32.3266 29.3764C33.8395 29.1661 35.2622 28.883 36.5345 28.5314C37.1267 29.3339 37.4516 30.2974 37.4516 31.313V32.258H39.0645V31.313C39.0645 30.1321 38.7361 29.0039 38.134 28.0234C39.5256 27.5123 40.6396 26.8937 41.3638 26.1719L42.1478 28.2628C42.7774 29.9403 43.0968 31.7001 43.0968 33.4917C43.0968 41.7055 36.4144 48.3871 28.2014 48.3871Z" fill="#0585F5"/>
<path d="M22.1289 12.0968C20.7952 12.0968 19.7096 11.0111 19.7096 9.67742C19.7096 8.3437 20.7952 7.25806 22.1289 7.25806C23.4626 7.25806 24.5483 8.3437 24.5483 9.67742C24.5483 11.0111 23.4626 12.0968 22.1289 12.0968Z" fill="#93CCFF"/>
<path d="M13.258 4.83871C11.9242 4.83871 10.8386 3.75307 10.8386 2.41935C10.8386 1.08564 11.9242 0 13.258 0C14.5917 0 15.6773 1.08564 15.6773 2.41935C15.6773 3.75307 14.5917 4.83871 13.258 4.83871Z" fill="#93CCFF"/>
<path d="M10.0321 16.9355C8.69843 16.9355 7.61279 15.8498 7.61279 14.5161C7.61279 13.1824 8.69843 12.0968 10.0321 12.0968C11.3659 12.0968 12.4515 13.1824 12.4515 14.5161C12.4515 15.8498 11.3659 16.9355 10.0321 16.9355Z" fill="#93CCFF"/>
<path d="M28.5805 8.87097C27.2468 8.87097 26.1612 7.78533 26.1612 6.45161C26.1612 5.1179 27.2468 4.03226 28.5805 4.03226C29.9143 4.03226 30.9999 5.1179 30.9999 6.45161C30.9999 7.78533 29.9143 8.87097 28.5805 8.87097Z" fill="#93CCFF"/>
<path d="M37.4515 4.83871C36.1178 4.83871 35.0321 3.75307 35.0321 2.41935C35.0321 1.08564 36.1178 0 37.4515 0C38.7852 0 39.8709 1.08564 39.8709 2.41935C39.8709 3.75307 38.7852 4.83871 37.4515 4.83871Z" fill="#93CCFF"/>
<path d="M40.6773 16.9355C39.3436 16.9355 38.258 15.8498 38.258 14.5161C38.258 13.1824 39.3436 12.0968 40.6773 12.0968C42.011 12.0968 43.0967 13.1824 43.0967 14.5161C43.0967 15.8498 42.011 16.9355 40.6773 16.9355Z" fill="#93CCFF"/>
</svg>
