<svg width="171" height="68" viewBox="0 0 171 68" fill="none" xmlns="http://www.w3.org/2000/svg">
<g clip-path="url(#clip0)">
<path fill-rule="evenodd" clip-rule="evenodd" d="M8.0929 47.7125C-2.69763 36.7976 -2.69763 19.1011 8.0929 8.18617C18.8834 -2.72872 36.3783 -2.72872 47.1689 8.18617C57.9594 19.1011 57.9594 36.7976 47.1689 47.7125L27.6309 67.4757L8.0929 47.7125ZM27.779 20.4564L28.0036 17.6557C27.2893 17.2598 26.6821 16.7969 26.1661 16.292L26.0403 14.7227C26.0403 14.7227 25.9851 14.0457 25.9851 13.9798C25.9851 12.9658 26.8007 12.1408 27.8031 12.1408C28.8054 12.1408 29.6208 12.9658 29.6208 13.9798C29.6208 14.0458 29.5659 14.7227 29.5659 14.7227L29.2834 18.2456L29.0676 20.9364L28.8735 23.3573C28.7668 24.6887 26.8394 24.6887 26.7326 23.3573L26.6095 21.8223C25.8011 21.4565 25.08 21.0238 24.4383 20.54L25.2226 30.5732C26.1598 30.036 27.2127 29.5655 28.3844 29.167C29.1811 28.8961 29.9036 28.6386 30.5652 28.3915L31.0997 21.5588C37.5439 23.6166 37.5439 24.8482 37.5439 25.8529C37.5439 27.0187 37.5439 28.224 29.4893 30.9634C25.7113 32.2481 23.1519 34.2486 21.8816 36.909C20.9113 38.942 20.7842 41.3113 21.5336 43.4093C21.8521 44.3008 22.8739 46.4881 25.4766 47.5379C25.8487 47.688 26.2338 47.8068 26.6316 47.8944L27.6688 60.8311C27.6822 60.998 27.9239 60.998 27.9373 60.8311L28.9612 48.06C30.6994 47.9516 32.6249 47.3644 34.72 46.3009C35.3592 45.9763 35.6175 45.189 35.2965 44.5421C34.9761 43.8958 34.1974 43.6336 33.5579 43.9588C31.9503 44.775 30.4735 45.2592 29.1741 45.4042L30.1276 33.512C30.1897 33.4902 30.2521 33.4686 30.3149 33.4472C37.9318 30.8567 40.1345 29.1533 40.1345 25.8529C40.1345 22.6988 37.9565 20.9317 31.3092 18.8804L31.6466 14.5675C31.6478 14.5522 31.6445 14.5379 31.641 14.5239C31.6656 14.3456 31.6826 14.1649 31.6826 13.9798C31.6826 11.8124 29.9457 10.0555 27.803 10.0555C26.0002 10.0555 24.4846 11.2993 24.0492 12.9849C23.109 10.4914 23.2967 8.13439 23.3133 7.95283C23.3805 7.23402 22.8596 6.59526 22.1487 6.52545C21.4386 6.45678 20.8036 6.98267 20.7345 7.7029C20.4104 11.0772 21.5505 17.738 27.779 20.4564ZM25.6832 36.0664C25.0483 36.6718 24.5551 37.3352 24.2145 38.0486C23.2641 40.0396 23.7271 41.838 23.9702 42.5187C24.125 42.9521 24.7563 44.4119 26.4069 45.0919L25.6832 36.0664Z" fill="#0585F5"/>
<path d="M66.375 14.8754V11.576H89.2649V14.8754H79.627V42.3689H76.0129V14.8754H66.375Z" fill="#0585F5"/>
<path d="M107.218 36.6058C107.218 38.7178 107.218 39.9053 109.807 39.6854V42.2808C106.46 42.8523 104.318 42.0166 104.318 38.6734V37.9257C103.024 41.1371 99.8112 42.6769 96.3758 42.6769C89.8166 42.6769 86.6035 37.4423 86.6035 31.5474C86.7379 24.5969 91.6015 20.7259 98.6067 20.7259C101.596 20.7703 104.541 21.518 107.218 22.7054V36.6058ZM103.827 24.7731C102.042 23.9373 100.034 23.5412 98.3837 23.5412C93.5201 23.5412 90.2626 26.4009 90.129 31.5474C90.129 35.9906 92.5386 39.5092 97.0448 39.5092C101.417 39.5092 103.827 36.2105 103.827 31.5474V24.7731Z" fill="#0585F5"/>
<path d="M114.516 12.0164C115.631 12.0164 116.702 12.7197 116.702 14.1714C116.702 15.6231 115.631 16.3271 114.56 16.3708C113.445 16.4152 112.285 15.6675 112.285 14.1714C112.285 12.7197 113.4 12.0164 114.516 12.0164ZM116.211 42.3689H112.731V21.3418H116.211V42.3689Z" fill="#0585F5"/>
<path d="M124.327 10.125V34.7144C124.327 38.8496 125.219 40.3013 129.726 39.7291L129.86 42.457C123.301 43.5127 120.802 41.2689 120.802 34.7144V10.125H124.327Z" fill="#0585F5"/>
<path d="M129.743 31.7236C129.743 16.9867 152.409 16.9867 152.409 31.7236C152.409 46.3717 129.743 46.4598 129.743 31.7236ZM148.929 31.7236C148.929 20.9458 133.267 20.9458 133.267 31.7236C133.267 42.5444 148.929 42.5444 148.929 31.7236Z" fill="#0585F5"/>
<path d="M165.958 20.4624C167.832 20.4624 169.527 20.9902 171 22.0458L170.152 24.9492C168.769 24.0691 167.251 23.5412 165.601 23.5412C162.522 23.5412 159.666 25.8287 159.666 29.1718V42.3689H156.23V26.1367C156.23 24.2016 156.186 23.0134 153.643 23.2333L153.598 20.9458C156.944 20.3743 159.309 20.7259 159.443 23.981C160.648 21.3862 163.102 20.4624 165.958 20.4624Z" fill="#0585F5"/>
<path d="M75.5307 49.5656H79.0916C80.0258 49.5656 80.8544 49.7556 81.5788 50.1356C82.3033 50.5156 82.8668 51.042 83.2692 51.7133C83.6724 52.3852 83.874 53.1475 83.874 54.0007C83.874 54.8547 83.6724 55.617 83.2692 56.289C82.8668 56.9602 82.3033 57.4866 81.5788 57.8666C80.8544 58.2466 80.0258 58.4367 79.0916 58.4367H75.5307V49.5656ZM79.0399 57.8535C79.8715 57.8535 80.604 57.6912 81.2384 57.3657C81.8728 57.041 82.3609 56.5867 82.7035 56.0036C83.0462 55.4204 83.2183 54.7535 83.2183 54.0007C83.2183 53.2494 83.0462 52.5818 82.7035 51.9986C82.3609 51.4155 81.8728 50.9619 81.2384 50.6365C80.604 50.3111 79.8715 50.148 79.0399 50.148H76.1865V57.8535H79.0399Z" fill="#0585F5"/>
<path d="M87.4808 49.5656H88.1366V58.4367H87.4808V49.5656Z" fill="#0585F5"/>
<path d="M98.6872 58.4367L96.5405 55.4714C96.2229 55.5136 95.932 55.5347 95.6661 55.5347H93.0954V58.4367H92.4397V49.5656H95.6661C96.7975 49.5656 97.6844 49.8291 98.3276 50.3577C98.9701 50.8855 99.2913 51.6186 99.2913 52.5563C99.2913 53.2574 99.1096 53.8471 98.7448 54.324C98.3808 54.8016 97.8601 55.1372 97.1829 55.3316L99.4331 58.4367H98.6872ZM95.6661 54.9639C96.6261 54.9639 97.3587 54.755 97.8646 54.3371C98.3704 53.9185 98.623 53.3251 98.623 52.5563C98.623 51.7875 98.3704 51.1942 97.8646 50.7756C97.3587 50.3577 96.6261 50.148 95.6661 50.148H93.0954V54.9639H95.6661Z" fill="#0585F5"/>
<path d="M109.195 57.8535V58.4367H102.986V49.5656H109.002V50.148H103.642V53.6462H108.437V54.2162H103.642V57.8535H109.195Z" fill="#0585F5"/>
<path d="M114.015 57.9176C113.308 57.5288 112.751 56.9922 112.344 56.3079C111.937 55.6235 111.733 54.8547 111.733 54.0007C111.733 53.1475 111.937 52.3787 112.344 51.6943C112.751 51.01 113.308 50.4734 114.015 50.0846C114.723 49.6966 115.517 49.5022 116.4 49.5022C117.051 49.5022 117.651 49.6056 118.2 49.8124C118.748 50.0199 119.216 50.3256 119.601 50.7311L119.19 51.1498C118.47 50.4479 117.549 50.0978 116.426 50.0978C115.672 50.0978 114.986 50.2667 114.369 50.6045C113.751 50.9423 113.268 51.4097 112.916 52.0052C112.565 52.6007 112.389 53.2662 112.389 54.0007C112.389 54.7361 112.565 55.4015 112.916 55.997C113.268 56.5926 113.751 57.0599 114.369 57.3978C114.986 57.7356 115.672 57.9045 116.426 57.9045C117.54 57.9045 118.462 57.5499 119.19 56.8401L119.601 57.258C119.216 57.6635 118.747 57.9722 118.193 58.1833C117.64 58.3944 117.043 58.5 116.4 58.5C115.517 58.5 114.723 58.3056 114.015 57.9176Z" fill="#0585F5"/>
<path d="M125.158 50.148H121.919V49.5656H129.054V50.148H125.814V58.4367H125.158V50.148Z" fill="#0585F5"/>
<path d="M133.004 57.911C132.293 57.5179 131.733 56.9791 131.326 56.2948C130.919 55.6104 130.715 54.846 130.715 54.0007C130.715 53.1562 130.919 52.3918 131.326 51.7074C131.733 51.0231 132.293 50.4843 133.004 50.0912C133.715 49.6981 134.512 49.5022 135.395 49.5022C136.277 49.5022 137.074 49.6966 137.786 50.0846C138.497 50.4734 139.056 51.01 139.464 51.6943C139.871 52.3787 140.074 53.1475 140.074 54.0007C140.074 54.8547 139.871 55.6235 139.464 56.3079C139.056 56.9922 138.497 57.5288 137.786 57.9176C137.074 58.3056 136.277 58.5 135.395 58.5C134.512 58.5 133.715 58.3034 133.004 57.911ZM137.439 57.3978C138.048 57.0599 138.528 56.5926 138.879 55.997C139.23 55.4015 139.406 54.7361 139.406 54.0007C139.406 53.2662 139.23 52.6007 138.879 52.0052C138.528 51.4097 138.048 50.9423 137.439 50.6045C136.83 50.2667 136.149 50.0978 135.395 50.0978C134.641 50.0978 133.957 50.2667 133.344 50.6045C132.732 50.9423 132.25 51.4097 131.898 52.0052C131.547 52.6007 131.371 53.2662 131.371 54.0007C131.371 54.7361 131.547 55.4015 131.898 55.997C132.25 56.5926 132.732 57.0599 133.344 57.3978C133.957 57.7356 134.641 57.9045 135.395 57.9045C136.149 57.9045 136.83 57.7356 137.439 57.3978Z" fill="#0585F5"/>
<path d="M149.916 58.4367L147.769 55.4714C147.451 55.5136 147.16 55.5347 146.895 55.5347H144.324V58.4367H143.668V49.5656H146.895C148.026 49.5656 148.913 49.8291 149.556 50.3577C150.198 50.8855 150.52 51.6186 150.52 52.5563C150.52 53.2574 150.338 53.8471 149.973 54.324C149.609 54.8016 149.089 55.1372 148.411 55.3316L150.661 58.4367H149.916ZM146.895 54.9639C147.855 54.9639 148.587 54.755 149.093 54.3371C149.599 53.9185 149.851 53.3251 149.851 52.5563C149.851 51.7875 149.599 51.1942 149.093 50.7756C148.587 50.3577 147.855 50.148 146.895 50.148H144.324V54.9639H146.895Z" fill="#0585F5"/>
<path d="M156.838 55.3826V58.4367H156.182V55.3826L152.557 49.5656H153.277L156.529 54.787L159.782 49.5656H160.463L156.838 55.3826Z" fill="#0585F5"/>
</g>
<defs>
<clipPath id="clip0">
<path d="M0 0H171V67.4757H0V0Z" fill="white"/>
</clipPath>
</defs>
</svg>
