<svg width="20" height="20" viewBox="0 0 20 20" fill="none" xmlns="http://www.w3.org/2000/svg">
<path d="M14.2857 4.28571C14.2857 1.91877 12.3669 0 9.99995 0C7.633 0 5.71423 1.91877 5.71423 4.28571C5.71423 6.40799 7.26052 8.15778 9.28566 8.49941V19.0581L9.99995 20L10.7142 19.0581V8.49941C12.7394 8.15778 14.2857 6.40799 14.2857 4.28571ZM9.99995 7.14268C8.42463 7.14268 7.1428 5.86086 7.1428 4.28554C7.1428 2.71022 8.42463 1.4284 9.99995 1.4284C11.5759 1.4284 12.8571 2.71022 12.8571 4.28554C12.8571 5.86086 11.5759 7.14268 9.99995 7.14268Z" fill="#878787"/>
</svg>
