<svg width="20" height="20" viewBox="0 0 20 20" fill="none" xmlns="http://www.w3.org/2000/svg">
<path d="M15.6934 11.8457C15.9799 11.8457 16.2533 11.901 16.5137 12.0117C16.7806 12.1159 17.015 12.2689 17.2169 12.4707L19.3653 14.6191C19.567 14.821 19.72 15.0553 19.8243 15.3223C19.9349 15.5827 19.9903 15.8561 19.9903 16.1426C19.9903 16.429 19.9349 16.7057 19.8243 16.9727C19.72 17.2331 19.567 17.4641 19.3653 17.666L19.2286 17.8027C18.877 18.1543 18.5547 18.4669 18.2617 18.7403C17.9687 19.0137 17.6627 19.2449 17.3437 19.4336C17.0247 19.6159 16.6699 19.7559 16.2793 19.8536C15.8887 19.9511 15.4231 20 14.8829 20C14.069 20 13.2324 19.873 12.373 19.6191C11.5137 19.3653 10.6576 19.0137 9.80469 18.5644C8.95833 18.1153 8.125 17.5814 7.30469 16.9629C6.49089 16.3444 5.7194 15.6706 4.99023 14.9414C4.26757 14.2057 3.60026 13.431 2.98829 12.6172C2.3763 11.7969 1.84896 10.9635 1.40625 10.1172C0.963541 9.26433 0.61849 8.41471 0.371094 7.56836C0.123698 6.722 0 5.90169 0 5.10743C0 4.56706 0.0455729 4.10481 0.136719 3.7207C0.234374 3.33659 0.374349 2.98503 0.55664 2.66601C0.745443 2.347 0.973307 2.04427 1.24023 1.75781C1.51367 1.46484 1.82617 1.14258 2.17773 0.791016L2.33399 0.634766C2.53581 0.432943 2.76693 0.276693 3.02734 0.166016C3.28776 0.0553386 3.56446 0 3.85743 0C4.14389 0 4.41731 0.0553386 4.67773 0.166016C4.94466 0.276693 5.17904 0.432943 5.38086 0.634766L7.5293 2.7832C7.73111 2.98503 7.88411 3.2194 7.98829 3.48633C8.09896 3.74674 8.1543 4.02019 8.1543 4.30664C8.1543 4.5931 8.10547 4.85026 8.00781 5.07813C7.91016 5.29949 7.78971 5.5013 7.64649 5.6836C7.50326 5.86589 7.34374 6.0319 7.16797 6.18164C6.9987 6.33139 6.84244 6.47787 6.69921 6.6211C6.55599 6.76433 6.43554 6.91081 6.33789 7.06054C6.24023 7.20377 6.1914 7.36003 6.1914 7.5293C6.1914 7.77669 6.2793 7.98829 6.45507 8.16406L11.8359 13.5449C12.0117 13.7207 12.2233 13.8086 12.4707 13.8086C12.64 13.8086 12.7962 13.7598 12.9395 13.6621C13.0892 13.5645 13.2357 13.444 13.3789 13.3008C13.5221 13.1576 13.6686 13.0013 13.8184 12.832C13.9681 12.6563 14.1341 12.4967 14.3164 12.3535C14.4987 12.2103 14.7006 12.0898 14.9219 11.9922C15.1497 11.8945 15.4069 11.8457 15.6934 11.8457ZM14.8829 18.75C15.3516 18.75 15.7421 18.7077 16.0547 18.623C16.3737 18.5319 16.6601 18.405 16.914 18.2421C17.168 18.0729 17.4154 17.8646 17.6563 17.6171C17.8971 17.3699 18.1739 17.0899 18.4863 16.7773C18.6621 16.6016 18.75 16.39 18.75 16.1426C18.75 16.0254 18.7011 15.8887 18.6036 15.7324C18.5124 15.5697 18.3919 15.4004 18.2421 15.2246C18.0924 15.0489 17.9231 14.8699 17.7344 14.6874C17.5521 14.4987 17.3699 14.3229 17.1874 14.1602C17.0117 13.9909 16.8457 13.8379 16.6894 13.7012C16.5397 13.5579 16.4226 13.444 16.3379 13.3594C16.1621 13.1836 15.9473 13.0957 15.6934 13.0957C15.5241 13.0957 15.3679 13.1445 15.2246 13.2422C15.0814 13.3398 14.9381 13.4603 14.7949 13.6035C14.6517 13.7467 14.502 13.9063 14.3457 14.082C14.196 14.2513 14.0299 14.4076 13.8477 14.5507C13.6654 14.694 13.4603 14.8144 13.2324 14.9121C13.0111 15.0097 12.7572 15.0586 12.4707 15.0586C12.1842 15.0586 11.9076 15.0066 11.6406 14.9023C11.3802 14.7917 11.1491 14.6354 10.9473 14.4336L5.5664 9.05273C5.36459 8.85091 5.20833 8.61979 5.09766 8.35937C4.99349 8.09244 4.9414 7.81576 4.9414 7.5293C4.9414 7.24284 4.99023 6.98893 5.08789 6.76757C5.18554 6.53971 5.30599 6.33463 5.44921 6.15234C5.59244 5.97006 5.7487 5.80404 5.91797 5.6543C6.09374 5.49804 6.25326 5.34831 6.39649 5.20507C6.53971 5.06184 6.66016 4.91861 6.75781 4.77539C6.85547 4.63216 6.9043 4.47591 6.9043 4.30664C6.9043 4.05273 6.8164 3.83789 6.64063 3.66211C6.55599 3.57747 6.44206 3.46029 6.29883 3.31054C6.16211 3.1543 6.00911 2.98829 5.83984 2.8125C5.67709 2.63021 5.5013 2.44791 5.3125 2.26563C5.13021 2.07683 4.95117 1.90756 4.77539 1.75781C4.59961 1.60807 4.43034 1.48763 4.26757 1.39648C4.11133 1.29883 3.97461 1.25 3.85743 1.25C3.61003 1.25 3.39844 1.33789 3.22266 1.51367C2.91016 1.82617 2.63021 2.10287 2.38281 2.34374C2.14193 2.58463 1.9336 2.83203 1.75781 3.08594C1.58854 3.33984 1.45833 3.6263 1.36719 3.94531C1.28255 4.25781 1.24023 4.64519 1.24023 5.10743C1.24023 5.83659 1.35742 6.58854 1.5918 7.36329C1.83269 8.13801 2.16146 8.91276 2.57813 9.6875C3.0013 10.4622 3.49934 11.2272 4.07227 11.9824C4.64519 12.7311 5.27019 13.4408 5.94727 14.1113C6.62434 14.7819 7.33724 15.4004 8.08594 15.9669C8.84114 16.5331 9.60287 17.0247 10.3711 17.4414C11.1458 17.8516 11.9141 18.1739 12.6758 18.4081C13.444 18.636 14.1797 18.75 14.8829 18.75Z" fill="#878787"/>
</svg>
