<svg width="93" height="57" viewBox="0 0 93 57" fill="none" xmlns="http://www.w3.org/2000/svg">
<path d="M19.7881 21.8919C25.8647 21.8919 30.8076 16.9821 30.8076 10.9479C30.8076 4.90986 25.8647 0 19.7881 0C13.7115 0 8.7687 4.90986 8.7687 10.946C8.7687 16.9821 13.7115 21.8919 19.7881 21.8919ZM19.7881 3.93103C23.6822 3.93103 26.8501 7.07979 26.8501 10.946C26.8501 14.8121 23.6822 17.9609 19.7881 17.9609C15.894 17.9609 12.7261 14.8141 12.7261 10.9479C12.7261 7.08175 15.894 3.93103 19.7881 3.93103Z" fill="#93CCFF"/>
<path d="M1.97976 57C2.44277 57 2.90975 56.8388 3.2857 56.5106L35.5644 28.2818L55.949 48.5286C56.7227 49.2971 57.9732 49.2971 58.7469 48.5286C59.5206 47.7601 59.5206 46.5179 58.7469 45.7494L49.2353 36.3011L67.4018 16.5398L89.684 36.8299C90.4894 37.563 91.7419 37.508 92.4799 36.708C93.218 35.908 93.1646 34.6639 92.3573 33.9307L68.6128 12.31C68.2249 11.9582 67.7085 11.7833 67.1881 11.7951C66.6637 11.8187 66.1691 12.0486 65.8149 12.4339L46.4354 33.518L37.0504 24.1955C36.3103 23.4624 35.1271 23.425 34.3435 24.109L0.671829 53.5584C-0.149335 54.2758 -0.228483 55.518 0.493745 56.3337C0.885529 56.7759 1.43165 57 1.97976 57Z" fill="#93CCFF"/>
</svg>
