<svg width="16" height="16" viewBox="0 0 16 16" fill="none" xmlns="http://www.w3.org/2000/svg">
<path fill-rule="evenodd" clip-rule="evenodd" d="M1.76818 8.07209C3.65857 5.49391 5.9177 4.3335 7.98861 4.3335C10.4623 4.3335 12.7578 5.90639 14.2388 8.04992C12.7662 10.211 10.489 11.7617 7.98861 11.7617C5.46334 11.7617 3.23663 10.2248 1.76818 8.07209ZM15.2493 7.76212C15.3042 7.84739 15.3334 7.94666 15.3334 8.04807C15.3334 8.14948 15.3042 8.24875 15.2493 8.33403C13.6632 10.8178 11.0279 12.7617 7.98861 12.7617C4.91594 12.7617 2.33367 10.8237 0.750524 8.34549C0.694328 8.25851 0.665174 8.15682 0.666747 8.05328C0.668321 7.94974 0.70055 7.84899 0.759363 7.76375C2.81981 4.81025 5.43711 3.3335 7.98861 3.3335C11.005 3.3335 13.6596 5.30686 15.2493 7.76212Z" fill="#0585F5"/>
<path fill-rule="evenodd" clip-rule="evenodd" d="M8.00002 9.66681C8.92049 9.66681 9.66668 8.92062 9.66668 8.00014C9.66668 7.07967 8.92049 6.33348 8.00002 6.33348C7.07954 6.33348 6.33335 7.07967 6.33335 8.00014C6.33335 8.92062 7.07954 9.66681 8.00002 9.66681ZM10.6667 8.00014C10.6667 9.4729 9.47278 10.6668 8.00002 10.6668C6.52726 10.6668 5.33335 9.4729 5.33335 8.00014C5.33335 6.52739 6.52726 5.33348 8.00002 5.33348C9.47278 5.33348 10.6667 6.52739 10.6667 8.00014Z" fill="#0585F5"/>
</svg>
