<svg width="20" height="20" viewBox="0 0 20 20" fill="none" xmlns="http://www.w3.org/2000/svg">
<path d="M10 0C10.918 0 11.8034 0.120443 12.6562 0.361328C13.5091 0.595703 14.3066 0.93099 15.0488 1.36719C15.791 1.79688 16.4648 2.31771 17.0703 2.92969C17.6823 3.53516 18.2031 4.20898 18.6328 4.95117C19.069 5.69336 19.4043 6.49089 19.6387 7.34375C19.8796 8.19661 20 9.08203 20 10C20 10.918 19.8796 11.8034 19.6387 12.6562C19.4043 13.5091 19.069 14.3066 18.6328 15.0488C18.2031 15.791 17.6823 16.4681 17.0703 17.0801C16.4648 17.6855 15.791 18.2064 15.0488 18.6426C14.3066 19.0723 13.5091 19.4076 12.6562 19.6484C11.8034 19.8828 10.918 20 10 20C9.08203 20 8.19661 19.8828 7.34375 19.6484C6.49089 19.4076 5.69336 19.0723 4.95117 18.6426C4.20898 18.2064 3.5319 17.6855 2.91992 17.0801C2.31445 16.4681 1.79362 15.791 1.35742 15.0488C0.927734 14.3066 0.592448 13.5124 0.351562 12.666C0.117188 11.8132 0 10.9245 0 10C0 9.08203 0.117188 8.19661 0.351562 7.34375C0.592448 6.49089 0.927734 5.69336 1.35742 4.95117C1.79362 4.20898 2.31445 3.53516 2.91992 2.92969C3.5319 2.31771 4.20898 1.79688 4.95117 1.36719C5.69336 0.93099 6.48763 0.595703 7.33398 0.361328C8.18685 0.120443 9.07552 0 10 0ZM17.9004 6.25C17.653 5.72266 17.3535 5.22786 17.002 4.76562C16.6504 4.29688 16.2598 3.87044 15.8301 3.48633C15.4004 3.10221 14.9349 2.76042 14.4336 2.46094C13.9323 2.16146 13.4082 1.91732 12.8613 1.72852C13.0957 2.05404 13.3073 2.39909 13.4961 2.76367C13.6849 3.12826 13.8509 3.50586 13.9941 3.89648C14.1439 4.2806 14.2708 4.67122 14.375 5.06836C14.4792 5.46549 14.5703 5.85938 14.6484 6.25H17.9004ZM18.75 10C18.75 9.13411 18.6296 8.30078 18.3887 7.5H14.8438C14.8958 7.91667 14.9349 8.33333 14.9609 8.75C14.987 9.16016 15 9.57682 15 10C15 10.4232 14.987 10.8431 14.9609 11.2598C14.9349 11.6699 14.8958 12.0833 14.8438 12.5H18.3887C18.6296 11.6992 18.75 10.8659 18.75 10ZM10 18.75C10.319 18.75 10.6152 18.6621 10.8887 18.4863C11.1686 18.3105 11.4258 18.0794 11.6602 17.793C11.8945 17.5065 12.1029 17.1842 12.2852 16.8262C12.474 16.4616 12.64 16.0938 12.7832 15.7227C12.9264 15.3516 13.0469 14.9935 13.1445 14.6484C13.2422 14.3034 13.3171 14.0039 13.3691 13.75H6.63086C6.68294 14.0039 6.75781 14.3034 6.85547 14.6484C6.95312 14.9935 7.07357 15.3516 7.2168 15.7227C7.36003 16.0938 7.52279 16.4616 7.70508 16.8262C7.89388 17.1842 8.10547 17.5065 8.33984 17.793C8.57422 18.0794 8.82812 18.3105 9.10156 18.4863C9.38151 18.6621 9.68099 18.75 10 18.75ZM13.584 12.5C13.6361 12.0833 13.6751 11.6699 13.7012 11.2598C13.7337 10.8431 13.75 10.4232 13.75 10C13.75 9.57682 13.7337 9.16016 13.7012 8.75C13.6751 8.33333 13.6361 7.91667 13.584 7.5H6.41602C6.36393 7.91667 6.32161 8.33333 6.28906 8.75C6.26302 9.16016 6.25 9.57682 6.25 10C6.25 10.4232 6.26302 10.8431 6.28906 11.2598C6.32161 11.6699 6.36393 12.0833 6.41602 12.5H13.584ZM1.25 10C1.25 10.8659 1.37044 11.6992 1.61133 12.5H5.15625C5.10417 12.0833 5.0651 11.6699 5.03906 11.2598C5.01302 10.8431 5 10.4232 5 10C5 9.57682 5.01302 9.16016 5.03906 8.75C5.0651 8.33333 5.10417 7.91667 5.15625 7.5H1.61133C1.37044 8.30078 1.25 9.13411 1.25 10ZM10 1.25C9.68099 1.25 9.38151 1.33789 9.10156 1.51367C8.82812 1.68945 8.57422 1.92057 8.33984 2.20703C8.10547 2.49349 7.89388 2.81901 7.70508 3.18359C7.52279 3.54167 7.36003 3.90625 7.2168 4.27734C7.07357 4.64844 6.95312 5.00651 6.85547 5.35156C6.75781 5.69661 6.68294 5.99609 6.63086 6.25H13.3691C13.3171 5.99609 13.2422 5.69661 13.1445 5.35156C13.0469 5.00651 12.9264 4.64844 12.7832 4.27734C12.64 3.90625 12.474 3.54167 12.2852 3.18359C12.1029 2.81901 11.8945 2.49349 11.6602 2.20703C11.4258 1.92057 11.1686 1.68945 10.8887 1.51367C10.6152 1.33789 10.319 1.25 10 1.25ZM7.13867 1.72852C6.5918 1.91732 6.06771 2.16146 5.56641 2.46094C5.0651 2.76042 4.59961 3.10221 4.16992 3.48633C3.74023 3.87044 3.34961 4.29688 2.99805 4.76562C2.64648 5.22786 2.34701 5.72266 2.09961 6.25H5.35156C5.42969 5.85938 5.52083 5.46549 5.625 5.06836C5.72917 4.67122 5.85286 4.2806 5.99609 3.89648C6.14583 3.50586 6.3151 3.12826 6.50391 2.76367C6.69271 2.39909 6.9043 2.05404 7.13867 1.72852ZM2.09961 13.75C2.34701 14.2773 2.64648 14.7754 2.99805 15.2441C3.34961 15.7064 3.74023 16.1296 4.16992 16.5137C4.59961 16.8978 5.0651 17.2396 5.56641 17.5391C6.06771 17.8385 6.5918 18.0827 7.13867 18.2715C6.9043 17.946 6.69271 17.6009 6.50391 17.2363C6.3151 16.8717 6.14583 16.4974 5.99609 16.1133C5.85286 15.7227 5.72917 15.3288 5.625 14.9316C5.52083 14.5345 5.42969 14.1406 5.35156 13.75H2.09961ZM12.8613 18.2715C13.4082 18.0827 13.9323 17.8385 14.4336 17.5391C14.9349 17.2396 15.4004 16.8978 15.8301 16.5137C16.2598 16.1296 16.6504 15.7064 17.002 15.2441C17.3535 14.7754 17.653 14.2773 17.9004 13.75H14.6484C14.5703 14.1406 14.4792 14.5345 14.375 14.9316C14.2708 15.3288 14.1439 15.7227 13.9941 16.1133C13.8509 16.4974 13.6849 16.8717 13.4961 17.2363C13.3073 17.6009 13.0957 17.946 12.8613 18.2715Z" fill="#878787"/>
</svg>
