<svg width="16" height="16" viewBox="0 0 16 16" fill="none" xmlns="http://www.w3.org/2000/svg">
<path d="M12.5547 9.47656C12.7839 9.47656 13.0026 9.52083 13.211 9.60937C13.4245 9.69271 13.612 9.81511 13.7735 9.97656L15.4922 11.6953C15.6536 11.8568 15.776 12.0442 15.8594 12.2578C15.9479 12.4662 15.9922 12.6849 15.9922 12.9141C15.9922 13.1432 15.9479 13.3646 15.8594 13.5782C15.776 13.7865 15.6536 13.9713 15.4922 14.1328L15.3829 14.2422C15.1016 14.5234 14.8438 14.7735 14.6094 14.9922C14.375 15.211 14.1302 15.3959 13.875 15.5469C13.6198 15.6927 13.3359 15.8047 13.0234 15.8829C12.711 15.9609 12.3385 16 11.9063 16C11.2552 16 10.5859 15.8984 9.89843 15.6953C9.21094 15.4922 8.52604 15.211 7.84375 14.8515C7.16666 14.4922 6.5 14.0651 5.84375 13.5703C5.19271 13.0755 4.57552 12.5365 3.99218 11.9531C3.41406 11.3646 2.88021 10.7448 2.39063 10.0937C1.90104 9.4375 1.47917 8.77083 1.125 8.09375C0.770833 7.41146 0.494792 6.73177 0.296875 6.05469C0.0989583 5.3776 0 4.72135 0 4.08594C0 3.65365 0.0364583 3.28385 0.109375 2.97656C0.187499 2.66927 0.299479 2.38802 0.445312 2.13281C0.596354 1.8776 0.778646 1.63542 0.992187 1.40625C1.21094 1.17187 1.46094 0.914063 1.74218 0.632813L1.86719 0.507813C2.02865 0.346354 2.21354 0.221354 2.42187 0.132813C2.63021 0.0442709 2.85157 0 3.08594 0C3.31511 0 3.53385 0.0442709 3.74218 0.132813C3.95573 0.221354 4.14323 0.346354 4.30469 0.507813L6.02344 2.22656C6.18489 2.38802 6.30729 2.57552 6.39063 2.78906C6.47917 2.99739 6.52344 3.21615 6.52344 3.44531C6.52344 3.67448 6.48438 3.88021 6.40625 4.0625C6.32812 4.23959 6.23177 4.40104 6.11719 4.54688C6.00261 4.69271 5.87499 4.82552 5.73438 4.94531C5.59896 5.06511 5.47395 5.1823 5.35937 5.29688C5.24479 5.41146 5.14843 5.52865 5.07031 5.64843C4.99218 5.76302 4.95312 5.88802 4.95312 6.02344C4.95312 6.22135 5.02344 6.39063 5.16406 6.53125L9.46875 10.8359C9.60937 10.9766 9.77865 11.0469 9.97656 11.0469C10.112 11.0469 10.237 11.0078 10.3516 10.9297C10.4713 10.8516 10.5885 10.7552 10.7031 10.6406C10.8177 10.526 10.9349 10.401 11.0547 10.2656C11.1745 10.125 11.3073 9.99739 11.4531 9.88281C11.599 9.76823 11.7605 9.67187 11.9375 9.59375C12.1198 9.51562 12.3255 9.47656 12.5547 9.47656ZM11.9063 15C12.2813 15 12.5937 14.9662 12.8438 14.8984C13.099 14.8255 13.3281 14.724 13.5312 14.5937C13.7344 14.4583 13.9323 14.2917 14.125 14.0937C14.3177 13.8959 14.5391 13.6719 14.789 13.4218C14.9297 13.2813 15 13.112 15 12.9141C15 12.8203 14.9609 12.711 14.8829 12.5859C14.8099 12.4558 14.7135 12.3203 14.5937 12.1797C14.4739 12.0391 14.3385 11.8959 14.1875 11.7499C14.0417 11.599 13.8959 11.4583 13.7499 11.3281C13.6094 11.1927 13.4766 11.0703 13.3515 10.9609C13.2318 10.8464 13.1381 10.7552 13.0703 10.6875C12.9297 10.5469 12.7578 10.4766 12.5547 10.4766C12.4193 10.4766 12.2943 10.5156 12.1797 10.5937C12.0651 10.6719 11.9505 10.7682 11.8359 10.8828C11.7214 10.9974 11.6016 11.125 11.4766 11.2656C11.3568 11.401 11.224 11.5261 11.0781 11.6406C10.9323 11.7552 10.7682 11.8515 10.5859 11.9297C10.4089 12.0078 10.2057 12.0469 9.97656 12.0469C9.74739 12.0469 9.52604 12.0053 9.3125 11.9218C9.10417 11.8334 8.91927 11.7083 8.75782 11.5469L4.45312 7.24218C4.29167 7.08073 4.16666 6.89583 4.07813 6.6875C3.99479 6.47395 3.95312 6.25261 3.95312 6.02344C3.95312 5.79427 3.99218 5.59114 4.07031 5.41406C4.14843 5.23177 4.24479 5.0677 4.35937 4.92187C4.47395 4.77605 4.59896 4.64323 4.73438 4.52344C4.87499 4.39843 5.00261 4.27865 5.11719 4.16406C5.23177 4.04947 5.32812 3.93489 5.40625 3.82031C5.48438 3.70573 5.52344 3.58073 5.52344 3.44531C5.52344 3.24218 5.45312 3.07031 5.3125 2.92969C5.24479 2.86198 5.15365 2.76823 5.03906 2.64843C4.92969 2.52344 4.80729 2.39063 4.67187 2.25C4.54167 2.10417 4.40104 1.95833 4.25 1.8125C4.10417 1.66146 3.96094 1.52605 3.82031 1.40625C3.67969 1.28646 3.54427 1.1901 3.41406 1.11719C3.28906 1.03906 3.17969 1 3.08594 1C2.88802 1 2.71875 1.07031 2.57813 1.21094C2.32813 1.46094 2.10417 1.6823 1.90625 1.87499C1.71354 2.0677 1.54688 2.26562 1.40625 2.46875C1.27083 2.67187 1.16666 2.90104 1.09375 3.15625C1.02604 3.40625 0.992187 3.71615 0.992187 4.08594C0.992187 4.66927 1.08594 5.27083 1.27344 5.89063C1.46615 6.51041 1.72917 7.13021 2.0625 7.75C2.40104 8.36979 2.79947 8.98177 3.25782 9.58594C3.71615 10.1849 4.21615 10.7526 4.75782 11.2891C5.29947 11.8255 5.86979 12.3203 6.46875 12.7735C7.07291 13.2265 7.6823 13.6198 8.29688 13.9531C8.91666 14.2813 9.53125 14.5391 10.1406 14.7265C10.7552 14.9088 11.3437 15 11.9063 15Z" fill="#0585F5"/>
</svg>
