<svg width="14" height="19" viewBox="0 0 14 19" fill="none" xmlns="http://www.w3.org/2000/svg">
<path fill-rule="evenodd" clip-rule="evenodd" d="M0 6.73883C0 3.01709 3.13394 0 7 0C10.866 0 14 3.01709 14 6.73883C14 6.75938 13.9969 6.77915 13.9939 6.79892C13.991 6.81752 13.9881 6.83613 13.9878 6.85539C13.9635 8.19559 13.5418 9.44176 12.8184 10.4819L7 19L1.21005 10.5236C1.20467 10.516 1.19953 10.5083 1.19438 10.5007C1.19011 10.4944 1.18584 10.488 1.18142 10.4817C0.458093 9.44168 0.0364013 8.1955 0.0122192 6.85539C0.0118878 6.83613 0.00900619 6.81752 0.00612477 6.79892C0.00306228 6.77915 0 6.75938 0 6.73883ZM7 10C8.65685 10 10 8.65685 10 7C10 5.34315 8.65685 4 7 4C5.34315 4 4 5.34315 4 7C4 8.65685 5.34315 10 7 10Z" fill="#0585F5"/>
</svg>
