<svg width="50" height="50" viewBox="0 0 50 50" fill="none" xmlns="http://www.w3.org/2000/svg">
<g clip-path="url(#clip0)">
<path d="M24.9998 8.84509C29.4408 8.84509 33.0407 5.24514 33.0407 0.804199H29.8244C29.8244 3.46892 27.6645 5.62874 24.9998 5.62874C22.3351 5.62874 20.1753 3.46892 20.1753 0.804199H16.9589C16.9589 5.24514 20.5589 8.84509 24.9998 8.84509Z" fill="#93CCFF"/>
<path d="M24.9998 30.9407L16.7579 21.9496C15.851 20.9614 15.3508 19.6763 15.3508 18.3328V18.2178C15.3508 15.266 17.752 12.8647 20.7038 12.8647C22.1333 12.8647 23.4769 13.4215 24.4886 14.4329L24.9998 14.9441L25.5114 14.4329C26.5228 13.4215 27.8664 12.8647 29.2963 12.8647C32.248 12.8647 34.6489 15.266 34.6489 18.2178V18.3328C34.6489 19.6763 34.1491 20.9614 33.241 21.9496L24.9998 30.9407Z" fill="#93CCFF"/>
<path d="M48.3887 38.5971L46.9933 37.4922C47.4307 34.6363 48.3797 31.8679 49.8206 29.3453L48.4248 28.5479C47.0369 30.9771 46.0718 33.619 45.5516 36.3513L41.0816 32.8126V24.9268H50L48.5905 8.7166C48.3957 6.47865 46.8936 4.57444 44.7628 3.86379L33.1711 0H29.0203V0.804089C29.0203 3.02123 27.2169 4.82454 24.9998 4.82454C22.7831 4.82454 20.9794 3.02123 20.9794 0.804089V0H16.829L5.23718 3.86379C3.10603 4.57365 1.60425 6.47865 1.40951 8.7166L0 24.9268H8.91801V49.8536H41.0816V47.3506C43.5268 47.0722 44.9002 46.2112 45.4232 45.8076C45.5708 45.8237 45.7196 45.8323 45.8708 45.8323C48.1072 45.8323 49.9266 44.0129 49.9266 41.7765C49.9266 40.5311 49.3663 39.3717 48.3887 38.5971ZM39.4734 48.2454H10.5262V12.0613H8.91801V23.3186H1.75463L1.8944 21.7104H7.30983V20.1022H2.03417L3.01219 8.85559C3.15118 7.25801 4.22383 5.89718 5.74602 5.38991L17.0893 1.60818H19.4285C19.8199 4.33258 22.1686 6.43272 24.9998 6.43272C27.831 6.43272 30.1801 4.33258 30.5715 1.60818H32.9107L44.254 5.38991C45.7762 5.89718 46.8496 7.25801 46.9878 8.85559L47.9654 20.1022H42.6898V21.7104H48.1056L48.2454 23.3186H41.0816V12.0613H39.4734V31.5397L30.7678 24.648L28.8192 26.7733L39.4734 40.2304V45.8331C37.4746 45.8331 35.7514 45.0742 33.7557 44.1947C31.2213 43.0785 28.3489 41.8127 24.1957 41.8127V43.4208C28.0104 43.4208 30.6013 44.563 33.1074 45.6658C35.1797 46.5787 37.1361 47.4413 39.4734 47.4413V48.2454ZM41.0816 45.7302V42.2622L42.6906 44.2952C42.9305 44.5975 43.2092 44.8539 43.5135 45.0726C42.956 45.3258 42.1558 45.5897 41.0816 45.7302ZM45.8708 44.2249C45.1181 44.2249 44.4189 43.8865 43.9524 43.2972L30.8876 26.7949L45.2768 38.1864C45.1672 39.1385 45.102 40.0969 45.102 41.0592V41.8884L46.7102 41.8134V41.0592C46.7102 40.4958 46.7353 39.9336 46.7754 39.3725L47.3906 39.859C47.98 40.3262 48.3184 41.0254 48.3184 41.7773C48.3184 43.1268 47.2202 44.2249 45.8708 44.2249Z" fill="#0585F5"/>
</g>
<defs>
<clipPath id="clip0">
<rect width="50" height="49.8536" fill="white"/>
</clipPath>
</defs>
</svg>
