<svg width="15" height="15" viewBox="0 0 15 15" fill="none" xmlns="http://www.w3.org/2000/svg">
<path d="M9.72363 9.07227L11.4189 14.5L7.04395 11.1367L2.66895 14.5L4.36426 9.07227L0.0439453 5.75H5.40332L7.04395 0.5L8.68457 5.75H14.0439L9.72363 9.07227ZM9.75781 12.1211C9.58464 11.556 9.41146 10.9954 9.23828 10.4395C9.0651 9.87891 8.88737 9.31608 8.70508 8.75098C9.17448 8.40007 9.63704 8.04688 10.0928 7.69141C10.5485 7.33594 11.0088 6.98047 11.4736 6.625H8.04199L7.04395 3.43262L6.0459 6.625H2.61426C3.0791 6.98047 3.53939 7.33594 3.99512 7.69141C4.45085 8.04688 4.91341 8.40007 5.38281 8.75098C5.20052 9.31608 5.02279 9.87891 4.84961 10.4395C4.67643 10.9954 4.50326 11.556 4.33008 12.1211L7.04395 10.0293L9.75781 12.1211Z" fill="#0469C2"/>
</svg>
