<svg width="50" height="50" viewBox="0 0 50 50" fill="none" xmlns="http://www.w3.org/2000/svg">
<path d="M13.4 25H11V9H15V23.4C15 24.284 14.284 25 13.4 25Z" fill="#93CCFF"/>
<path d="M34.6769 24.1934C32.0083 24.1934 29.8383 22.0233 29.8383 19.3547C29.8383 16.6862 32.0083 14.5161 34.6769 14.5161C37.3455 14.5161 39.5155 16.6862 39.5155 19.3547C39.5155 22.0233 37.3455 24.1934 34.6769 24.1934Z" fill="#93CCFF"/>
<path d="M29.8383 33.0642C29.8383 35.7328 32.0083 37.9029 34.6769 37.9029C37.3455 37.9029 39.5155 35.7328 39.5155 33.0642C39.5155 30.3956 37.3455 28.2256 34.6769 28.2256C32.0083 28.2256 29.8383 30.3956 29.8383 33.0642ZM33.8705 29.953V31.4513H35.4833V29.953C36.6115 30.2464 37.4947 31.1296 37.7881 32.2578H36.2898V33.8707H37.7881C37.4947 34.9988 36.6115 35.882 35.4833 36.1754V34.6771H33.8705V36.1754C32.7423 35.882 31.8591 34.9988 31.5657 33.8707H33.064V32.2578H31.5657C31.8591 31.1296 32.7423 30.2464 33.8705 29.953Z" fill="#0585F5"/>
<path d="M45.1606 13.7095V16.1288H42.7413V12.0966C42.7413 10.1498 41.3532 8.52077 39.5155 8.1459V0H34.6769V1.61288H31.4511V0H26.6125V1.61288H23.3867V0H18.5481V8.06439H14.5159V6.45151C14.5159 5.56199 13.7925 4.83863 12.903 4.83863H6.45151C5.56199 4.83863 4.83863 5.56199 4.83863 6.45151V8.06439H2.41932C1.08562 8.06439 0 9.15001 0 10.4837V23.3867C0 24.4365 0.676495 25.3237 1.61288 25.6576V29.0318H4.83863V33.8704H6.45151V37.9026H8.06439V33.8704H9.67727V32.2576H12.903V33.064H14.5159V29.8382H12.903V30.6447H9.67727V29.0318H12.903V25.806H13.7095C15.0432 25.806 16.1288 24.7204 16.1288 23.3867V21.7739H24.1932V40.3219H25.806V21.9223C26.7424 22.2562 27.4189 23.1434 27.4189 24.1932V40.3219H29.0318V24.1932C29.0318 21.9699 27.2228 20.161 24.9996 20.161H16.1288V18.5481H19.3545V9.67727H38.7091C40.0428 9.67727 41.1284 10.7629 41.1284 12.0966V47.5799C41.1284 48.0249 40.7661 48.3863 40.3219 48.3863L7.25795 48.3871C6.81378 48.3871 6.45151 48.026 6.45151 47.5807V43.5H4.83863V47.5807C4.83863 48.9144 5.92425 50 7.25795 50L40.3219 49.9992C41.6556 49.9992 42.7413 48.9136 42.7413 47.5799V24.1932H45.1606V26.6125H49.9992V13.7095H45.1606ZM37.9026 1.61288V8.06439H36.2897V1.61288H37.9026ZM34.6769 8.06439H31.4511V6.45151H34.6769V8.06439ZM34.6769 3.22576V4.83863H31.4511V3.22576H34.6769ZM29.8382 1.61288V8.06439H28.2254V1.61288H29.8382ZM26.6125 8.06439H23.3867V6.45151H26.6125V8.06439ZM26.6125 3.22576V4.83863H23.3867V3.22576H26.6125ZM20.161 1.61288H21.7739V8.06439H20.161V1.61288ZM6.45151 6.45151H12.903V8.06439H6.45151V6.45151ZM8.06439 32.2576H6.45151V29.0318H8.06439V32.2576ZM11.2901 27.4189H3.22576V25.806H11.2901V27.4189ZM14.5159 23.3867C14.5159 23.8317 14.1536 24.1932 13.7095 24.1932H2.41932C1.97515 24.1932 1.61288 23.8317 1.61288 23.3867V10.4837C1.61288 10.0387 1.97515 9.67727 2.41932 9.67727H14.5159L14.5159 23.3867ZM17.7417 16.9352H16.1288V9.67727H17.7417V16.9352ZM42.7413 22.5803V17.7417H45.1606V22.5803H42.7413ZM48.3863 24.9996H46.7735V15.3223H48.3863V24.9996Z" fill="#0585F5"/>
<path d="M14.4999 20.1611H9.67721V13.7096H14.4999V12.0967L8.06433 12.0967V21.7739H14.4999V20.1611Z" fill="#0585F5"/>
<path d="M33.8705 18.5479H35.4834V20.1607H33.8705V18.5479Z" fill="white"/>
<path d="M30.4 44H1.6C0.717578 44 0 43.5515 0 43V41C0 40.4485 0.717578 40 1.6 40H30.4C31.2824 40 32 40.4485 32 41V43C32 43.5515 31.2824 44 30.4 44Z" fill="#93CCFF"/>
</svg>
