<svg width="50" height="50" viewBox="0 0 50 50" fill="none" xmlns="http://www.w3.org/2000/svg">
<path d="M50 33.871C47.3314 33.871 45.1613 31.7009 45.1613 29.0323V9.67742C45.1613 8.09602 44.3856 6.61149 43.0873 5.7058L44.0107 4.38232C45.7413 5.59043 46.7742 7.56954 46.7742 9.67742V29.0323C46.7742 30.8113 48.2209 32.2581 50 32.2581V33.871Z" fill="#93CCFF"/>
<path d="M40.3226 0C38.0994 0 36.2903 1.809 36.2911 4.07597L38.7514 50H41.8938L44.3549 4.03226C44.3549 1.809 42.5459 0 40.3226 0ZM40.3643 48.3871H40.2809L37.9033 4.03226C37.9033 2.69854 38.9889 1.6129 40.3226 1.6129C41.6563 1.6129 42.742 2.69854 42.7427 3.98855L40.3643 48.3871Z" fill="#0585F5"/>
<path d="M4.03229 17.7417H21.7742V19.3546H4.03229V17.7417Z" fill="#93CCFF"/>
<path d="M23.3871 17.7417H28.2258V19.3546H23.3871V17.7417Z" fill="#93CCFF"/>
<path d="M4.03229 20.9675H28.2258V22.5804H4.03229V20.9675Z" fill="#93CCFF"/>
<path d="M4.03229 24.1933H7.25809V25.8062H4.03229V24.1933Z" fill="#93CCFF"/>
<path d="M8.871 24.1933H28.2258V25.8062H8.871V24.1933Z" fill="#93CCFF"/>
<path d="M4.03229 27.4191H28.2258V29.032H4.03229V27.4191Z" fill="#93CCFF"/>
<path d="M4.03229 30.6449H21.7742V32.2578H4.03229V30.6449Z" fill="#93CCFF"/>
<path d="M23.3871 30.6449H28.2258V32.2578H23.3871V30.6449Z" fill="#93CCFF"/>
<path d="M4.03229 33.8707H28.2258V35.4836H4.03229V33.8707Z" fill="#93CCFF"/>
<path d="M4.03229 37.0965H7.25809V38.7094H4.03229V37.0965Z" fill="#93CCFF"/>
<path d="M8.871 37.0965H28.2258V38.7094H8.871V37.0965Z" fill="#93CCFF"/>
<path d="M30.6452 30.6449H28.2258V29.032H30.6452C32.4243 29.032 33.871 27.5853 33.871 25.8062V9.6772C33.871 6.11983 36.7652 3.22559 40.3226 3.22559V4.83849C37.654 4.83849 35.4839 7.00858 35.4839 9.6772V25.8062C35.4839 28.4748 33.3138 30.6449 30.6452 30.6449Z" fill="#93CCFF"/>
<path d="M30.6452 6.45166H1.6129C0.723365 6.45166 0 7.17502 0 8.06456V9.67747C0 10.567 0.723365 11.2904 1.6129 11.2904H1.82751L3.22581 15.7314V40.7203L1.82751 45.1613H1.6129C0.723365 45.1613 0 45.8847 0 46.7742V48.3871C0 49.2767 0.723365 50 1.6129 50H30.6452C31.5347 50 32.2581 49.2767 32.2581 48.3871V46.7742C32.2581 45.8847 31.5347 45.1613 30.6452 45.1613H30.4306L29.0323 40.7203V15.7314L30.4306 11.2904H30.6452C31.5347 11.2904 32.2581 10.567 32.2581 9.67747V8.06456C32.2581 7.17502 31.5347 6.45166 30.6452 6.45166ZM4.83871 40.3226V16.1291H27.4194V40.3226H4.83871ZM30.6459 48.3871H1.6129V46.7742H30.6452L30.6459 48.3871ZM3.51838 45.1613L4.53393 41.9355H27.7241L28.7397 45.1613H3.51838ZM27.7241 14.5162H4.53393L3.51838 11.2904H28.7389L27.7241 14.5162ZM30.6452 9.67747H1.6129L1.61212 8.06456H30.6452V9.67747Z" fill="#0585F5"/>
</svg>
